<svg xmlns="http://www.w3.org/2000/svg" width="20" height="20" viewBox="0 0 20 20" fill="none">
    <!-- Eye -->
    <path d="M9.99999 3.25C14.044 3.25 17.4085 6.16 18.1142 10C17.4092 13.84 14.044 16.75 9.99999 16.75C5.95599 16.75 2.59149 13.84 1.88574 10C2.59074 6.16 5.95599 3.25 9.99999 3.25ZM9.99999 15.25C11.5296 15.2497 13.0138 14.7301 14.2096 13.7764C15.4055 12.8226 16.2422 11.4912 16.5827 10C16.2409 8.50998 15.4037 7.18 14.208 6.22752C13.0122 5.27504 11.5287 4.7564 9.99999 4.7564C8.47126 4.7564 6.98776 5.27504 5.79202 6.22752C4.59629 7.18 3.75907 8.50998 3.41724 10C3.75781 11.4912 4.5945 12.8226 5.79035 13.7764C6.9862 14.7301 8.47039 15.2497 9.99999 15.25Z" fill="#A8A8A8"/>

    <!-- Slash -->
    <path d="M3 17L17 3" stroke="#A8A8A8" stroke-width="1.5" stroke-linecap="round"/>
</svg>
