<svg width="48" height="48" viewBox="0 0 48 48" fill="none" xmlns="http://www.w3.org/2000/svg">
<path d="M23.9997 10C16.2393 10 9.94824 16.2911 9.94824 24.0514C9.94824 30.641 14.4852 36.1705 20.6054 37.6892V28.3455H17.708V24.0514H20.6054V22.2011C20.6054 17.4186 22.7699 15.2018 27.4653 15.2018C28.3556 15.2018 29.8917 15.3766 30.5201 15.5509V19.4431C30.1885 19.4083 29.6124 19.3909 28.8969 19.3909C26.593 19.3909 25.7027 20.2637 25.7027 22.5328V24.0514H30.2925L29.5039 28.3455H25.7027V38C32.6604 37.1597 38.0517 31.2356 38.0517 24.0514C38.0511 16.2911 31.76 10 23.9997 10Z" fill="white"/>
</svg>
