<svg width="48" height="48" viewBox="0 0 48 48" fill="none" xmlns="http://www.w3.org/2000/svg">
<path d="M24.0081 12.5216C27.7495 12.5216 28.1925 12.538 29.6639 12.6036C31.0314 12.6638 31.7698 12.8935 32.2621 13.085C32.913 13.3366 33.3834 13.6429 33.8702 14.1297C34.3625 14.622 34.6633 15.0869 34.9149 15.7378C35.1064 16.2301 35.3361 16.974 35.3963 18.336C35.4619 19.8129 35.4783 20.2559 35.4783 23.9918C35.4783 27.7332 35.4619 28.1762 35.3963 29.6476C35.3361 31.015 35.1064 31.7535 34.9149 32.2458C34.6633 32.8967 34.357 33.3671 33.8702 33.8539C33.3779 34.3462 32.913 34.647 32.2621 34.8986C31.7698 35.0901 31.0259 35.3198 29.6639 35.38C28.187 35.4456 27.744 35.462 24.0081 35.462C20.2668 35.462 19.8237 35.4456 18.3523 35.38C16.9849 35.3198 16.2464 35.0901 15.7542 34.8986C15.1032 34.647 14.6328 34.3407 14.146 33.8539C13.6537 33.3616 13.3529 32.8967 13.1013 32.2458C12.9098 31.7535 12.6801 31.0096 12.6199 29.6476C12.5543 28.1707 12.5379 27.7277 12.5379 23.9918C12.5379 20.2504 12.5543 19.8074 12.6199 18.336C12.6801 16.9685 12.9098 16.2301 13.1013 15.7378C13.3529 15.0869 13.6592 14.6165 14.146 14.1297C14.6383 13.6374 15.1032 13.3366 15.7542 13.085C16.2464 12.8935 16.9903 12.6638 18.3523 12.6036C19.8237 12.538 20.2668 12.5216 24.0081 12.5216ZM24.0081 10C20.2066 10 19.7307 10.0164 18.2374 10.082C16.7497 10.1477 15.7268 10.3884 14.8407 10.733C13.9163 11.094 13.1341 11.5698 12.3574 12.352C11.5752 13.1287 11.0993 13.9109 10.7383 14.8298C10.3937 15.7214 10.1531 16.7388 10.0874 18.2266C10.0218 19.7253 10.0054 20.2012 10.0054 24.0027C10.0054 27.8043 10.0218 28.2801 10.0874 29.7734C10.1531 31.2612 10.3937 32.284 10.7383 33.1702C11.0993 34.0945 11.5752 34.8767 12.3574 35.6534C13.1341 36.4302 13.9163 36.9115 14.8352 37.267C15.7268 37.6116 16.7442 37.8523 18.232 37.918C19.7252 37.9836 20.2011 38 24.0026 38C27.8042 38 28.28 37.9836 29.7733 37.918C31.2611 37.8523 32.2839 37.6116 33.1701 37.267C34.089 36.9115 34.8712 36.4302 35.6479 35.6534C36.4246 34.8767 36.9059 34.0946 37.2615 33.1756C37.6061 32.284 37.8468 31.2667 37.9124 29.7789C37.978 28.2856 37.9944 27.8097 37.9944 24.0082C37.9944 20.2067 37.978 19.7308 37.9124 18.2375C37.8468 16.7498 37.6061 15.7269 37.2615 14.8408C36.9169 13.9109 36.441 13.1287 35.6588 12.352C34.8821 11.5753 34.0999 11.094 33.181 10.7384C32.2894 10.3938 31.272 10.1532 29.7842 10.0875C28.2855 10.0164 27.8096 10 24.0081 10Z" fill="white"/>
<path d="M24.0082 16.8098C20.0372 16.8098 16.8154 20.0315 16.8154 24.0026C16.8154 27.9737 20.0372 31.1954 24.0082 31.1954C27.9793 31.1954 31.2011 27.9737 31.2011 24.0026C31.2011 20.0315 27.9793 16.8098 24.0082 16.8098ZM24.0082 28.6684C21.432 28.6684 19.3425 26.5789 19.3425 24.0026C19.3425 21.4263 21.432 19.3369 24.0082 19.3369C26.5845 19.3369 28.674 21.4263 28.674 24.0026C28.674 26.5789 26.5845 28.6684 24.0082 28.6684Z" fill="white"/>
<path d="M33.1646 16.5254C33.1646 17.4553 32.4098 18.2047 31.4854 18.2047C30.5555 18.2047 29.8062 17.4498 29.8062 16.5254C29.8062 15.5956 30.561 14.8462 31.4854 14.8462C32.4098 14.8462 33.1646 15.601 33.1646 16.5254Z" fill="white"/>
</svg>
