<svg width="48" height="48" viewBox="0 0 48 48" fill="none" xmlns="http://www.w3.org/2000/svg">
<path d="M28.3605 13.3924C28.7321 14.9675 30.1465 16.1409 31.8355 16.1409C33.8074 16.1409 35.406 14.5424 35.406 12.5705C35.406 10.5986 33.8074 9 31.8355 9C30.1114 9 28.6735 10.222 28.3387 11.8473C25.4512 12.157 23.1964 14.606 23.1964 17.5738C23.1964 17.5805 23.1964 17.5855 23.1964 17.5922C20.0561 17.7245 17.1887 18.6183 14.9122 20.0295C14.0669 19.375 13.0056 18.9849 11.8539 18.9849C9.09029 18.9849 6.85059 21.2246 6.85059 23.9883C6.85059 25.9936 8.02903 27.7211 9.7314 28.5196C9.89712 34.3281 16.2262 39 24.0116 39C31.797 39 38.1345 34.3231 38.2918 28.5095C39.9808 27.7061 41.1492 25.9836 41.1492 23.99C41.1492 21.2263 38.9095 18.9866 36.1459 18.9866C34.9992 18.9866 33.943 19.3733 33.0993 20.0228C30.8027 18.6016 27.9035 17.7077 24.7314 17.5889C24.7314 17.5839 24.7314 17.5805 24.7314 17.5755C24.7314 15.4496 26.3116 13.6853 28.3605 13.3957V13.3924ZM14.7113 27.1637C14.795 25.3492 16.0002 23.9565 17.4013 23.9565C18.8024 23.9565 19.8737 25.4279 19.79 27.2424C19.7063 29.0569 18.6601 29.7164 17.2573 29.7164C15.8546 29.7164 14.6276 28.9782 14.7113 27.1637ZM30.6236 23.9565C32.0263 23.9565 33.2316 25.3492 33.3136 27.1637C33.3973 28.9782 32.1686 29.7164 30.7676 29.7164C29.3665 29.7164 28.3186 29.0586 28.2349 27.2424C28.1512 25.4279 29.2209 23.9565 30.6236 23.9565ZM28.9564 31.3619C29.2192 31.3887 29.3866 31.6615 29.2845 31.9059C28.4224 33.9665 26.3869 35.4145 24.0116 35.4145C21.6363 35.4145 19.6025 33.9665 18.7388 31.9059C18.6367 31.6615 18.8041 31.3887 19.0669 31.3619C20.6069 31.2062 22.2724 31.1209 24.0116 31.1209C25.7508 31.1209 27.4147 31.2062 28.9564 31.3619Z" fill="white"/>
</svg>
