<svg width="48" height="48" viewBox="0 0 48 48" fill="none" xmlns="http://www.w3.org/2000/svg">
<path fill-rule="evenodd" clip-rule="evenodd" d="M40 25C40 33.2843 33.2843 40 25 40C16.7157 40 10 33.2843 10 25C10 16.7157 16.7157 10 25 10C33.2843 10 40 16.7157 40 25ZM25.5375 21.0737C24.0786 21.6805 21.1627 22.9365 16.7899 24.8417C16.0798 25.124 15.7078 25.4003 15.674 25.6704C15.6167 26.1269 16.1884 26.3066 16.9668 26.5514C17.0727 26.5847 17.1824 26.6192 17.2949 26.6558C18.0608 26.9047 19.091 27.196 19.6266 27.2075C20.1124 27.218 20.6547 27.0177 21.2533 26.6067C25.3389 23.8488 27.448 22.4548 27.5804 22.4247C27.6738 22.4035 27.8032 22.3769 27.891 22.4548C27.9787 22.5328 27.97 22.6804 27.9608 22.72C27.9041 22.9614 25.6602 25.0476 24.4989 26.1272C24.1369 26.4638 23.8801 26.7025 23.8276 26.757C23.71 26.8792 23.5902 26.9947 23.475 27.1058C22.7635 27.7917 22.2299 28.306 23.5045 29.146C24.1171 29.5496 24.6072 29.8834 25.0962 30.2164C25.6302 30.5801 26.1629 30.9428 26.852 31.3946C27.0276 31.5097 27.1953 31.6292 27.3586 31.7457C27.9801 32.1887 28.5384 32.5868 29.2282 32.5233C29.6291 32.4864 30.0431 32.1095 30.2533 30.9854C30.7503 28.3289 31.727 22.5731 31.9528 20.2012C31.9726 19.9934 31.9477 19.7275 31.9277 19.6107C31.9077 19.494 31.866 19.3276 31.7142 19.2045C31.5345 19.0587 31.257 19.0279 31.133 19.0301C30.5688 19.04 29.7032 19.341 25.5375 21.0737Z" fill="white"/>
</svg>
