<svg width="41" height="41" viewBox="0 0 41 41" fill="none" xmlns="http://www.w3.org/2000/svg">
<path d="M12.4341 16.9147L20.2701 9.21461L27.9738 17.054L32.5331 12.5737L20.3491 0.174952L7.95412 12.355L12.4342 16.9144L12.4341 16.9147ZM0.174952 19.9992L4.73449 15.5181L9.21461 20.0774L4.65509 24.5578L0.174952 19.9992ZM12.3782 23.2983L20.0783 31.1338L27.9178 23.4305L32.4005 27.9875L32.3983 27.9899L19.9992 40.1734L7.8192 27.7784L7.81285 27.7719L12.3787 23.2978L12.3782 23.2983ZM31.1338 20.272L35.6933 15.7915L40.1734 20.3507L35.614 24.8312L31.1338 20.272Z" fill="#F3BA2F"/>
<path d="M24.7578 20.2108L24.7597 20.2108L20.2134 15.5841L16.7938 18.9434L16.4009 19.3296L15.5906 20.1259L15.5842 20.1321L15.5905 20.1387L20.1331 24.762L24.76 20.2156L24.7623 20.213L24.7581 20.2108" fill="#F3BA2F"/>
</svg>
